PathFileType	4	(X/Y/Z)	Kaydara	
DataRate	CameraRate	NumFrames	NumMarkers	Units	OrigDataRate	OrigDataStartFrame	OrigNumFrames	
120.00	120.00	4	72	mm	120.00	1	268	
Frame#	Time	Hips			RightUpLeg			RightLeg			RightFoot			RightFoot_End			LeftUpLeg			LeftLeg			LeftFoot			LeftFoot_End			Spine			Spine1			Spine2			Spine3			Neck			Head			Head_End			RightShoulder			RightArm			RightForeArm			RightHand			RightHandThumb1			RightHandThumb2			RightHandThumb3			RightHandThumb3_End			RightInHandIndex			RightHandIndex1			RightHandIndex2			RightHandIndex3			RightHandIndex3_End			RightInHandMiddle			RightHandMiddle1			RightHandMiddle2			RightHandMiddle3			RightHandMiddle3_End			RightInHandRing			RightHandRing1			RightHandRing2			RightHandRing3			RightHandRing3_End			RightInHandPinky			RightHandPinky1			RightHandPinky2			RightHandPinky3			RightHandPinky3_End			LeftShoulder			LeftArm			LeftForeArm			LeftHand			LeftHandThumb1			LeftHandThumb2			LeftHandThumb3			LeftHandThumb3_End			LeftInHandIndex			LeftHandIndex1			LeftHandIndex2			LeftHandIndex3			LeftHandIndex3_End			LeftInHandMiddle			LeftHandMiddle1			LeftHandMiddle2			LeftHandMiddle3			LeftHandMiddle3_End			LeftInHandRing			LeftHandRing1			LeftHandRing2			LeftHandRing3			LeftHandRing3_End			LeftInHandPinky			LeftHandPinky1			LeftHandPinky2			LeftHandPinky3			LeftHandPinky3_End			
		X1	Y1	Z1	X2	Y2	Z2	X3	Y3	Z3	X4	Y4	Z4	X5	Y5	Z5	X6	Y6	Z6	X7	Y7	Z7	X8	Y8	Z8	X9	Y9	Z9	X10	Y10	Z10	X11	Y11	Z11	X12	Y12	Z12	X13	Y13	Z13	X14	Y14	Z14	X15	Y15	Z15	X16	Y16	Z16	X17	Y17	Z17	X18	Y18	Z18	X19	Y19	Z19	X20	Y20	Z20	X21	Y21	Z21	X22	Y22	Z22	X23	Y23	Z23	X24	Y24	Z24	X25	Y25	Z25	X26	Y26	Z26	X27	Y27	Z27	X28	Y28	Z28	X29	Y29	Z29	X30	Y30	Z30	X31	Y31	Z31	X32	Y32	Z32	X33	Y33	Z33	X34	Y34	Z34	X35	Y35	Z35	X36	Y36	Z36	X37	Y37	Z37	X38	Y38	Z38	X39	Y39	Z39	X40	Y40	Z40	X41	Y41	Z41	X42	Y42	Z42	X43	Y43	Z43	X44	Y44	Z44	X45	Y45	Z45	X46	Y46	Z46	X47	Y47	Z47	X48	Y48	Z48	X49	Y49	Z49	X50	Y50	Z50	X51	Y51	Z51	X52	Y52	Z52	X53	Y53	Z53	X54	Y54	Z54	X55	Y55	Z55	X56	Y56	Z56	X57	Y57	Z57	X58	Y58	Z58	X59	Y59	Z59	X60	Y60	Z60	X61	Y61	Z61	X62	Y62	Z62	X63	Y63	Z63	X64	Y64	Z64	X65	Y65	Z65	X66	Y66	Z66	X67	Y67	Z67	X68	Y68	Z68	X69	Y69	Z69	X70	Y70	Z70	X71	Y71	Z71	X72	Y72	Z72	

1	0.0	2446.805	859.65103	-201.189	2544.9018534375336	858.0482314797109	-233.34542095248494	2390.096000214974	471.2261788942458	-300.04793340044097	2408.235953218415	36.96505698662278	-342.5158522808208	2310.6878105231576	-35.67589639678545	-178.40168783097664	2359.164102436362	834.0396817707252	-154.6258900369161	2239.5087060431674	434.7132132232687	-108.56957087731448	2188.842951763646	55.61520902595846	57.454612172503815	2211.459577496367	10.554424738057937	242.11135583448268	2395.1011542365263	978.5888145638185	-262.2821120213399	2338.163327943736	1039.4557733725271	-312.59185088324597	2271.5061029834915	1094.756653302674	-365.39090329260307	2199.377080591133	1136.9315016837766	-416.13071582425505	2121.594602071207	1182.5698016949389	-466.940563402606	2079.1512631605005	1254.3203678184561	-421.5878632362415	2056.387666462388	1338.7909892119442	-287.3738396383683	2168.862131807383	1174.2458975923796	-472.0780739338527	2253.2477976220434	1170.4483208892862	-560.0982780048524	2302.589225630092	933.5315566857946	-586.5056902772102	2385.5356277830715	792.1916152869431	-657.9040686568815	2384.5198578802238	787.7640944142856	-676.4475985689697	2369.7779309051652	780.6794672338641	-691.7694350051707	2361.0624489015368	774.0783292672755	-700.5853182764284	2355.1233994824593	767.1488211619602	-706.3484761247666	2391.9314559393497	780.9732569478675	-671.5050249122646	2399.031270065058	759.4083368963776	-685.4005905083902	2393.57957462731	746.5775581011475	-695.0542364278584	2382.671624386249	742.8268465000241	-701.479158927417	2368.5715707479635	742.5730672605401	-707.0825629837694	2395.408299756111	777.2922152537914	-665.9773549859834	2404.2168342602313	754.2667410659964	-676.5407551587703	2398.690705149482	739.8527672032463	-686.3003464777396	2385.7335139086654	735.1294799589683	-693.6801439799902	2370.4041058015346	734.7554590005496	-699.6306193528915	2397.8005897120233	775.2045678882729	-661.7082719271723	2408.1140094719494	752.6478260533373	-667.4424248891663	2403.714333246944	739.6990885863669	-675.1408045332953	2391.4374854656216	734.9384060119411	-681.8300460467624	2377.128881959192	734.4897351135145	-687.2216218656374	2399.4298717537526	773.7169574278232	-656.4577562321114	2410.288862012826	751.9788481971748	-658.4538134913807	2407.3703606798636	741.1072506830559	-663.3326897413854	2398.7080413356425	737.3916036479397	-667.5899207540801	2386.2012597231083	736.8541979357835	-672.0080480299456	2125.3591736881185	1163.9557214519295	-425.9379173586528	2066.0389506509	1096.3267042189125	-339.2379812650304	2173.8201801205287	946.5213737559521	-518.2324809048412	2368.6664011499024	845.6579047212646	-510.72677095945414	2353.586364181208	847.0997388135715	-517.1997481438182	2353.2628229402017	843.2140586666886	-547.141847007309	2354.4853433008902	838.705894651891	-570.0207605277433	2356.7430947248868	833.4059100702862	-590.8281736025788	2356.1246863072383	840.696842740091	-523.5012830230104	2347.820433429087	826.754542871703	-557.2984164378108	2348.8157283922897	817.4518534896765	-589.1478247114248	2352.617888879465	814.4377306980658	-609.2470019792615	2357.912226162736	813.8109502060064	-626.0843701506826	2360.6735932407505	836.2994808077099	-528.2346405280954	2355.0324468793387	820.3219266126426	-563.7572548109624	2356.754126329628	809.6363412938963	-599.036627976608	2361.6463193273985	805.7434291732867	-623.5376323265095	2367.5875676795918	804.9329379672561	-642.0833137271231	2364.0383341051424	833.5299112025489	-530.6517053741763	2361.725188905034	816.7521879222585	-564.3962267582987	2363.8850408740204	806.9176661471721	-595.6275399386141	2368.954043193468	802.8860080799838	-619.516505016002	2374.706221555046	801.9928511145403	-637.0753340960404	2368.637292658452	830.8883959965391	-532.9672976737692	2369.1436489889534	813.8045201394128	-565.1392580263841	2371.9121903421487	805.1899989194022	-590.7529282338581	2376.112146155916	801.8916153623701	-608.4701912243105	2381.496889573519	800.8945842099458	-624.1928313893628
2	0.008	2446.805	859.65103	-201.189	2544.8396021071576	858.0482646175288	-233.30956070778475	2390.134102531328	471.18332915847066	-299.83079066536567	2408.3928699691264	37.012320516232556	-342.3407216246616	2310.9748138718337	-35.654725151052865	-178.25369786775434	2359.2161096969103	834.0339861903502	-154.66661070797514	2239.5419021241964	434.72927116880936	-108.52978157648204	2188.8403214296363	55.682326571349556	57.59010889597866	2211.563001332305	10.663034734837057	242.22984131352166	2395.149769193122	978.61359916701	-262.26302318806603	2338.2478301856354	1039.5210024509947	-312.55512751973345	2271.633066449559	1094.875548043158	-365.3375919840332	2199.5473642254883	1137.1148895641516	-416.0665451124413	2121.810311099051	1182.8203217602115	-466.86516663832305	2079.3900707752478	1254.5832636097068	-421.5137913510853	2056.613577426301	1339.0560537416993	-287.30829296837663	2169.0567142178465	1174.4951933750722	-471.9741097751181	2253.446873958928	1170.8487372111233	-559.8790994430367	2303.1235085525773	934.1212603712419	-586.3553918720162	2386.269768028535	793.3953852483837	-658.0538689921686	2385.296492894831	789.1016421902449	-676.5400138612033	2370.6261728275613	782.121714548529	-691.8899604423623	2361.9607598286516	775.5870445087688	-700.7384407391532	2356.0636174762426	768.707441741224	-706.5399150506445	2392.7105667061282	782.3030902629649	-671.6336941698819	2399.8890987094937	760.8934619892987	-685.5675093215805	2394.503600572306	748.1541400707321	-695.2752184093565	2383.636800167188	744.4443543827854	-701.7352464899361	2369.5708010877433	744.2137208479331	-707.3687176519325	2396.1857565642827	778.59832817532	-666.1414056595602	2405.0701748180113	755.7114972293598	-676.7612447458002	2399.615814611491	741.3936690489782	-686.5844079621386	2386.708046428774	736.7180081928996	-694.0087567394718	2371.4157902145207	736.3684487992687	-699.9931911873285	2398.574770680687	776.4901256020659	-661.8961592004362	2408.953062035458	754.040237983115	-667.7010359247504	2404.6153514728226	741.1713427783473	-675.4594166983388	2392.3858594333024	736.4545013222645	-682.1940700550949	2378.112043777379	736.0278404320678	-687.6187379294555	2400.1987686875036	774.9730671162076	-656.6734717830772	2411.113697484313	753.3154014915077	-658.7509335681991	2408.2436197579523	742.5010959293663	-663.6847228379415	2399.6152648635425	738.8142175704766	-667.9783853577406	2387.138963007729	738.2944616826717	-672.4277422983772	2125.564586745749	1164.1589837427357	-425.8974100973227	2066.172663444072	1096.4612289693011	-339.37372928537326	2174.022044980609	946.9297619516641	-518.2449656067955	2368.931555869002	846.5680642690039	-510.66873738225894	2353.9437430269368	848.1165590693953	-517.1580801932768	2353.698298901506	844.2803586593818	-547.083518358278	2354.9639156186645	839.8038787868103	-569.9507348317769	2357.2479226222945	834.5279475896991	-590.7483012804388	2356.4491013034085	841.7203543024638	-523.4643898441221	2348.1975243499382	827.911484402991	-557.277654020192	2349.234420819181	818.6652385983024	-589.1188048568827	2353.0702691353713	815.6581109174224	-609.2009884249239	2358.3977741454655	815.0181841365011	-626.0162944687175	2360.965688444812	837.309087512526	-528.1959817878682	2355.3584378100086	821.4541690337763	-563.733367378663	2357.1210873613118	810.8278666102519	-599.003420975412	2362.051795184669	806.9422882651354	-623.4837786460223	2368.0283005826345	806.1168678149189	-642.0052434615858	2364.306137919118	834.5266706702347	-530.6115829057388	2362.001942156432	817.8488056343625	-564.3686649267617	2364.1929263550114	808.0633900124053	-595.5915080146134	2369.296650749996	804.0374470441477	-619.4603727310487	2375.080826131271	803.1296124090602	-636.9963499476395	2368.8764649305726	831.8635022222514	-532.9234415023667	2369.3730225276877	814.8591789530898	-565.1053009758451	2372.159305297056	806.2795459706564	-590.7115971197479	2376.381110846712	802.9831900150515	-608.4139217883196	2381.792205354452	801.9719151651336	-624.1161501358649
3	0.017	2446.805	859.65103	-201.189	2544.77546460856	858.0473189324902	-233.271683645423	2390.183669567321	471.1404288391189	-299.6309329126542	2408.588957657923	37.07492824172784	-342.21897572425894	2311.3162545459977	-35.629116059687206	-178.16164842221949	2359.2693430581758	834.0293294637943	-154.70888523764842	2239.5668410807307	434.75269136973867	-108.46621002804136	2188.8055350527525	55.76164996133911	57.75691008199445	2211.6324599891427	10.782864765747085	242.37920008831867	2395.2013435625017	978.6382292467318	-262.2460707586434	2338.3349369912858	1039.5845981594734	-312.52132958177856	2271.7666970572363	1094.9961953030202	-365.2882711201123	2199.7256237622	1137.2976518992887	-416.00943693301866	2122.035184791825	1183.0675314461419	-466.8001704679192	2079.6292838302275	1254.8340602912217	-421.44836838422754	2056.8144142057845	1339.2903186118501	-287.2419789482987	2169.2613339968416	1174.742972647921	-471.8784607865656	2253.660906816658	1171.2432452988567	-559.6597058469878	2303.6726853416053	934.7155449891761	-586.1800947247112	2387.0479122620754	794.6039333742187	-658.1698695134513	2386.124979401318	790.4409524254021	-676.5979697385486	2371.530187385468	783.5626314935802	-691.9778396444277	2362.916958655922	777.092737402932	-700.8599825386455	2357.062965040152	770.2620141558192	-706.7004914627971	2393.540371071975	783.6361736288058	-671.7268308080535	2400.8041610277382	762.3806912744401	-685.6969693388955	2395.4876713092517	749.7313938253016	-695.4591823856915	2384.6628063669064	746.0610283143694	-701.9558723381244	2370.6308652551065	745.8518552446812	-707.6215583713048	2397.0119234661984	779.908949102406	-666.2695483053	2405.9775292788217	757.1603242554304	-676.9437452327986	2400.597725893962	742.937244961775	-686.8309201785468	2387.7401941405574	738.3074693150198	-694.3016750027087	2372.4850312535327	737.9805810155462	-700.322418850438	2399.3961072221823	777.7811094068427	-662.0479010278285	2409.8427222183045	755.4385246832345	-667.9213791077717	2405.5691083814927	742.6484318401609	-675.7401061911784	2393.3876037923455	737.9738409507419	-682.5219427402941	2379.148440892314	737.5675435081208	-687.9818954488742	2401.01273398791	776.2356424081568	-656.8529800725087	2411.9855263227337	754.6594857008525	-659.0098029643809	2409.165091782331	743.9019152238235	-663.9987256482513	2400.5709218461666	740.2427729318485	-668.3300972626674	2388.124851667288	739.7392824279578	-672.8126060602244	2125.7772703710643	1164.3588991311817	-425.8671548434648	2066.378980394952	1096.6365234242276	-339.51392132119486	2174.260110412033	947.4228597268678	-518.4074548007662	2369.1971199786767	847.5566780838438	-510.7554502643794	2354.3029247625036	849.2128249097242	-517.2514668021115	2354.129010149093	845.4267032768872	-547.1531733620394	2355.432670117766	840.9822792117895	-570.0048944584713	2357.7383238060943	835.7306555461748	-590.7904234928046	2356.7744228350243	842.8232352986317	-523.5656873529099	2348.5716089793723	829.1488412894532	-557.3894301329228	2349.64379539033	819.9595608887142	-589.2185983483315	2353.5081333431585	816.9596147072895	-609.2810998464402	2358.863630541095	816.3065852259898	-626.0718627304815	2361.2573617993635	838.3978698057423	-528.2987974491444	2355.679472707132	822.666502887017	-563.8472314253887	2357.476034281006	812.1000194158555	-599.1043529165554	2362.438903544427	808.2219807119778	-623.5610340450052	2368.444968908126	807.381679232377	-642.0556794911113	2364.5727131412427	835.602443244267	-530.715410764201	2362.272810343294	819.0251227728841	-564.4838688323746	2364.4886078810796	809.2892549812875	-595.6955653746147	2369.6208361758113	805.2692060109009	-619.5416582515377	2375.4316110542586	804.3467261969683	-637.0524497707107	2369.113338380946	832.917389404039	-533.026517422381	2369.595265029327	815.9931113885121	-565.2190400604	2372.393999081314	807.4486670211008	-590.81655560976	2376.6330087077195	804.1544419304779	-608.502339930274	2382.065599519879	803.1289456269307	-624.1822989733589
4	0.025	2446.805	859.65103	-201.189	2544.7069201034606	858.0506519096823	-233.23663650782947	2390.2431098335164	471.1000889343547	-299.443103524169	2408.844897051556	37.149384529368376	-342.10917762165894	2311.7299118858255	-35.597604508531646	-178.08282821465545	2359.3282422545844	834.0201433584998	-154.749663587727	2239.609482510497	434.7690252450422	-108.39493117389284	2188.8149143878186	55.83449870685978	57.952954277241375	2211.753298810561	10.888819114839523	242.55341040113044	2395.2476842721762	978.663715570846	-262.22311226907897	2338.412908182004	1039.6501787046689	-312.47509669588766	2271.888057253192	1095.1211183680582	-365.21903693466504	2199.889141046307	1137.486616414878	-415.92568333754116	2122.243045753598	1183.3231219906656	-466.7011741308282	2079.8529481786636	1255.0930477304632	-421.3464828753042	2057.007213124282	1339.5346046134714	-287.13973390533624	2169.4455901759316	1174.9966683215291	-471.75121604633824	2253.840044522253	1171.6332031036134	-559.401154053243	2304.1908923060546	935.3140596524578	-585.9453939807988	2387.813616793202	795.8201564191297	-658.2185327366543	2386.941847926893	791.788591880001	-676.586597198004	2372.421438589901	785.0157440391228	-691.9968067161374	2363.858967600333	778.6135469253709	-700.9127199783269	2358.0463995073633	771.8343340200752	-706.7921951039731	2394.356381583474	784.9782350902311	-671.7494622262471	2401.701075821244	763.8807597565002	-685.7519160420043	2396.4506020488548	751.3254246295936	-695.5677011526801	2385.666682421231	747.6971333050644	-702.1019491687415	2371.668569533755	747.511749554171	-707.801591122489	2397.822746692528	781.2290990802188	-666.3269207496618	2406.8644536590296	758.6227396211027	-677.0514192628406	2401.5557570310752	744.4987685021633	-687.0015705462423	2388.747178123855	739.9181075087771	-694.5198067106774	2373.5288117560453	739.6164565279178	-700.5787624052236	2400.2011121162855	779.0818975022399	-662.1287672655765	2410.710617620777	756.8504714050014	-668.0670573456291	2406.497905867475	744.1430377122474	-675.9452171822496	2394.3630520594747	739.513842210532	-682.7752641673026	2380.158215460846	739.1303334713223	-688.2722853294823	2401.8093968442113	777.5083176786558	-656.961771558975	2412.8344545026525	756.0173502840931	-659.1945123995312	2410.0608361364734	745.3196754764149	-664.2378238936466	2401.499748519708	741.6905983673284	-668.6076585810212	2389.0835448250805	741.2055407933407	-673.1248938106253	2125.977954190109	1164.568116657507	-425.80572057549676	2066.603268769114	1096.8401152617632	-339.62211323949936	2174.492908508724	947.971829375407	-518.6218298822921	2369.438161923057	848.6013429452536	-510.8921105833144	2354.6420319040803	850.3623966028038	-517.3791072009317	2354.5321987329794	846.6235088353267	-547.24617279234	2355.8682045251876	842.2095250242818	-570.0764505393305	2358.190326089394	836.9811701486506	-590.8464084507016	2357.0793910619577	843.9805634835786	-523.7055661554219	2348.924989870397	830.4391610680901	-557.529350990185	2350.0262346329414	821.3053258359042	-589.3402414460705	2353.9123410887028	818.311172195376	-609.3791350070434	2359.2883513401894	817.6435821008884	-626.1420989112959	2361.5270339757094	839.5421245727621	-528.4451143426289	2355.977273834821	823.9334104796802	-563.9970850537949	2357.80072086392	813.4252219184561	-599.2350865502715	2362.787543183486	809.5531106941423	-623.6636808434037	2368.814928965451	808.6963675048158	-642.1281037040953	2364.8161897469327	836.7344516364109	-530.8664817084069	2362.518692157701	820.2575569708375	-564.6428270981567	2364.7529509145033	810.570052046144	-595.8386989644644	2369.905642633793	806.5544199845652	-619.6581464716076	2375.735213218444	805.6158604450643	-637.1407292661448	2369.325407455804	834.028382516442	-533.1814644997316	2369.7901085843932	817.184600275734	-565.3842914898984	2372.5958652144304	808.6746218048451	-590.9704061524349	2376.846045714397	805.3815533738472	-608.637363108367	2382.2931214363875	804.3406314365561	-624.2926900806635
